<svg width="64" height="64" viewBox="0 0 64 64" fill="none" xmlns="http://www.w3.org/2000/svg">
<g clip-path="url(#clip0)">
<path d="M53.5608 52.0665C52.5375 52.6027 51.4148 52.9348 50.2243 53.0539C49.9687 53.0795 49.7347 53.2089 49.5771 53.4119C49.4195 53.6149 49.3522 53.8737 49.3908 54.1278C49.4448 54.4819 49.4698 54.7738 49.4698 55.0463C49.4698 58.9495 45.7617 62.1249 41.2037 62.1249C37.8833 62.1249 34.8961 60.4318 33.5932 57.8113C33.445 57.5133 33.2161 57.2725 32.9375 57.1068V45.2609C33.0087 45.2584 33.0798 45.2559 33.1526 45.2534C34.9846 45.1884 37.2633 45.1067 38.5327 46.3315C39.1862 46.962 39.5668 47.9459 39.6706 49.2598C38.5937 49.6548 37.8232 50.6895 37.8232 51.9007C37.8232 53.4513 39.0861 54.7129 40.6382 54.7129C42.1903 54.7129 43.4532 53.4513 43.4532 51.9007C43.4532 50.6687 42.6557 49.6199 41.5497 49.2407C41.4255 47.3925 40.8503 45.9622 39.8348 44.9822C37.9922 43.2042 35.1565 43.3057 33.0858 43.3795C33.0357 43.3813 32.987 43.383 32.9376 43.3848V37.491C42.5008 37.5104 47.3278 37.9024 47.7458 43.055C46.6691 43.4502 45.8987 44.4848 45.8987 45.6959C45.8987 47.2465 47.1616 48.5082 48.7137 48.5082C50.2658 48.5082 51.5287 47.2465 51.5287 45.6959C51.5287 44.4633 50.7305 43.4143 49.6236 43.0354C49.3925 39.7122 47.6542 37.5912 44.3271 36.5654C41.441 35.6757 37.5005 35.619 32.9376 35.6155V29.7579C37.5005 29.7543 41.441 29.6978 44.3271 28.808C47.6542 27.7823 49.3925 25.6613 49.6236 22.338C50.7305 21.9592 51.5287 20.91 51.5287 19.6774C51.5287 18.1268 50.2658 16.8653 48.7137 16.8653C47.1616 16.8653 45.8987 18.1268 45.8987 19.6774C45.8987 20.8885 46.6691 21.9233 47.7458 22.3184C47.3278 27.471 42.5008 27.863 32.9376 27.8824V22.1748C32.987 22.1765 33.0356 22.1782 33.0858 22.18C33.5246 22.1957 33.9976 22.2127 34.4882 22.2127C36.3136 22.2127 38.3826 21.9787 39.8348 20.5774C40.8505 19.5975 41.4255 18.167 41.5497 16.319C42.6557 15.9397 43.4532 14.8909 43.4532 13.6589C43.4532 12.1083 42.1903 10.8468 40.6382 10.8468C39.0861 10.8468 37.8232 12.1083 37.8232 13.6589C37.8232 14.8701 38.5936 15.9049 39.6706 16.2999C39.5668 17.6138 39.1862 18.5977 38.5327 19.228C37.2633 20.4529 34.9838 20.371 33.1527 20.3062C33.08 20.3035 33.0088 20.301 32.9375 20.2987V16.2369C32.9375 15.719 32.5178 15.2994 32 15.2994C31.4821 15.2994 31.0625 15.719 31.0625 16.2369V57.107C30.7838 57.2728 30.5548 57.5137 30.4066 57.8118C29.1038 60.4318 26.1166 62.1249 22.7962 62.1249C18.2382 62.1249 14.5301 58.9495 14.5301 55.0463C14.5301 54.7738 14.5551 54.4819 14.6091 54.1278C14.6112 54.1123 14.839 52.5585 15.9075 51.5278C16.2801 51.1684 16.2907 50.5749 15.9312 50.2023C15.5717 49.8298 14.9781 49.8188 14.6057 50.1785C13.6852 51.0665 13.2086 52.1682 12.971 52.9354C10.7883 52.5217 8.84634 51.345 7.67209 49.6907C7.37246 49.2688 6.78709 49.1693 6.36484 49.4689C5.94271 49.7687 5.84334 50.3539 6.14309 50.7762C7.62559 52.8645 9.96609 54.2957 12.6605 54.7888C12.6571 54.8758 12.6553 54.9614 12.6553 55.0465C12.6553 59.9835 17.2047 64.0002 22.7965 64.0002C26.753 64.0002 30.3428 61.9705 32.0002 58.814C33.6575 61.9704 37.2472 63.9999 41.2037 63.9999C46.7955 63.9999 51.3448 59.9833 51.3448 55.0463C51.3448 54.9612 51.3431 54.8757 51.3397 54.7885C52.4287 54.5888 53.4651 54.2334 54.431 53.7274C54.8896 53.4872 55.0666 52.9205 54.8263 52.4619C54.5861 52.0032 54.0197 51.8262 53.5608 52.0665V52.0665ZM40.6381 50.9637C41.1563 50.9637 41.5781 51.384 41.5781 51.9008C41.5781 52.4177 41.1565 52.838 40.6381 52.838C40.1197 52.838 39.6981 52.4177 39.6981 51.9008C39.6982 51.384 40.1198 50.9637 40.6381 50.9637ZM48.7136 44.7588C49.2318 44.7588 49.6536 45.1792 49.6536 45.6959C49.6536 46.2128 49.232 46.6332 48.7136 46.6332C48.1952 46.6332 47.7736 46.2128 47.7736 45.6959C47.7736 45.1793 48.1953 44.7588 48.7136 44.7588ZM48.7136 18.7403C49.2318 18.7403 49.6536 19.1607 49.6536 19.6774C49.6536 20.1943 49.232 20.6147 48.7136 20.6147C48.1952 20.6147 47.7736 20.1943 47.7736 19.6774C47.7736 19.1607 48.1953 18.7403 48.7136 18.7403V18.7403ZM40.6381 12.7216C41.1563 12.7216 41.5781 13.1419 41.5781 13.6587C41.5781 14.1755 41.1565 14.5959 40.6381 14.5959C40.1197 14.5959 39.6981 14.1755 39.6981 13.6587C39.6982 13.1421 40.1198 12.7216 40.6381 12.7216Z" fill="#244346"/>
<path d="M6.47687 46.0283C6.47687 44.3328 7.1895 42.6434 8.43213 41.3938C8.67188 41.1525 8.76238 40.8005 8.66838 40.4737C8.57438 40.1469 8.31075 39.8965 7.97937 39.8197C4.38525 38.9848 1.875 36.1813 1.875 33.002C1.875 31.0245 2.79613 29.1453 4.46863 27.7104C4.66888 27.5388 4.78737 27.2908 4.79525 27.0272C4.80325 26.7637 4.69987 26.5089 4.51062 26.3255C3.553 25.3978 3.02562 24.2104 3.02562 22.9819C3.02562 20.2278 5.56337 18.0027 8.80287 17.9164C8.8175 17.9165 10.2474 17.9402 11.2522 18.8289C11.4306 18.9867 11.6523 19.0642 11.873 19.0642C12.1323 19.0642 12.3904 18.9573 12.5756 18.7478C12.9186 18.3599 12.8823 17.7674 12.4945 17.4244C11.4143 16.469 10.0739 16.174 9.333 16.0828C8.97025 15.4172 8.77787 14.693 8.77787 13.9639C8.77787 12.4149 9.59713 10.9693 11.0255 9.99779C11.4536 9.70666 11.5646 9.12354 11.2734 8.69541C10.9822 8.26729 10.399 8.15616 9.971 8.44754C8.021 9.77366 6.90275 11.7844 6.90275 13.964C6.90275 14.7245 7.04512 15.4783 7.32037 16.1949C3.765 16.8677 1.15062 19.6393 1.15062 22.9822C1.15062 24.4097 1.6415 25.7868 2.54912 26.9442C0.8985 28.6462 0 30.7662 0 33.002C0 36.614 2.4635 39.8282 6.14425 41.2184C5.1525 42.6377 4.60187 44.328 4.60187 46.0283C4.60187 46.5462 5.0215 46.9658 5.53937 46.9658C6.05725 46.9658 6.47687 46.546 6.47687 46.0283Z" fill="#244346"/>
<path d="M64 33.002C64 30.7659 63.1017 28.6459 61.4508 26.9439C62.3584 25.7864 62.8493 24.4092 62.8493 22.9819C62.8493 19.639 60.2348 16.8674 56.6794 16.1946C56.9548 15.478 57.0972 14.7241 57.0972 13.9637C57.0972 10.1317 53.58 7.01412 49.2569 7.01412C49.1707 7.01412 49.078 7.01613 48.9813 7.01963C48.7415 5.2515 47.8185 3.60125 46.3294 2.30625C44.6522 0.847625 42.4685 0.02875 40.1808 0.000875C40.1392 0.00025 40.0975 0 40.0559 0C36.6474 0 33.5153 1.71637 32 4.40975C30.4848 1.71625 27.353 0 23.9442 0C23.9028 0 23.8608 0.00025 23.8193 0.000875C21.5314 0.028875 19.3478 0.847625 17.6705 2.30625C16.1817 3.601 15.2588 5.25113 15.0188 7.01963C14.922 7.01613 14.8294 7.01412 14.7432 7.01412C14.2253 7.01412 13.8057 7.43375 13.8057 7.95162C13.8057 8.4695 14.2253 8.88912 14.7432 8.88912C15.0297 8.88912 15.4287 8.91825 15.7847 8.96513C16.0667 9.00225 16.3475 8.91037 16.5525 8.71575C16.7578 8.521 16.864 8.24412 16.8418 7.96212L16.8362 7.89813C16.8347 7.88125 16.8327 7.8645 16.832 7.85663C16.889 4.6605 20.0994 1.9215 23.8423 1.8755C26.6698 1.84675 29.2542 3.24063 30.4278 5.44175C30.5759 5.71963 30.797 5.94537 31.0627 6.10362V11.9086C31.0627 12.4265 31.4823 12.8461 32.0002 12.8461C32.518 12.8461 32.9377 12.4265 32.9377 11.9086V6.10375C33.2033 5.94563 33.4244 5.71975 33.5725 5.44187C34.7318 3.2675 37.2684 1.875 40.0549 1.875C40.0892 1.875 40.1235 1.87525 40.1578 1.87563C43.9007 1.9215 47.111 4.6605 47.168 7.84762C47.1529 7.83687 47.1414 9.727 46.1335 10.9316C45.8013 11.3288 45.8539 11.9199 46.2509 12.2521C46.4263 12.399 46.6397 12.4706 46.852 12.4706C47.12 12.4706 47.386 12.3564 47.5715 12.1346C48.4445 11.0913 48.7994 9.7935 48.9439 8.89825C49.0565 8.89237 49.1632 8.889 49.257 8.889C52.5462 8.889 55.2223 11.1655 55.2223 13.9636C55.2223 14.832 54.9527 15.6946 54.4427 16.4583C54.2529 16.7421 54.2327 17.1068 54.3897 17.4099C54.5465 17.7131 54.8559 17.9071 55.1973 17.9161C58.4368 18.0024 60.9745 20.2275 60.9745 22.9816C60.9745 24.2101 60.4472 25.3975 59.4895 26.3253C59.48 26.335 58.4773 27.333 57.1695 27.437C56.6534 27.478 56.2683 27.9296 56.3093 28.4459C56.3484 28.9368 56.7588 29.309 57.2429 29.309C57.2678 29.309 57.2929 29.308 57.3183 29.3061C58.506 29.2118 59.4822 28.6802 60.0988 28.2442C61.4105 29.5967 62.125 31.261 62.125 33.002C62.125 36.1814 59.6148 38.9847 56.0207 39.8195C55.6894 39.8964 55.4257 40.1467 55.3317 40.4735C55.2377 40.8004 55.328 41.1525 55.5679 41.3936C56.8104 42.6434 57.5232 44.3326 57.5232 46.0281C57.5232 47.2143 57.1728 48.3875 56.5102 49.4212C56.2307 49.857 56.3574 50.437 56.7934 50.7164C56.95 50.8169 57.1253 50.8649 57.2985 50.8649C57.6073 50.8649 57.9097 50.7125 58.0885 50.4333C58.9453 49.0971 59.3983 47.5738 59.3983 46.0283C59.3983 44.3281 58.8475 42.6378 57.8558 41.2184C61.5365 39.8283 64 36.6141 64 33.002V33.002Z" fill="#244346"/>
<path d="M10.5891 32.0732C10.5601 32.5902 10.9558 33.0329 11.4725 33.0619C11.4905 33.0629 11.5083 33.0634 11.526 33.0634C12.0196 33.0634 12.4331 32.6775 12.4611 32.1785C12.4638 32.1314 12.7801 27.4589 17.5089 26.3086C18.012 26.1862 18.3206 25.6792 18.1983 25.1761C18.0759 24.673 17.5693 24.364 17.0658 24.4867C13.8966 25.2576 12.3011 27.2797 11.5206 28.8404C10.6854 30.5106 10.5926 32.0102 10.5891 32.0732Z" fill="#244346"/>
<path d="M25.1067 10.3906C24.5939 10.3425 24.1341 10.7204 24.0853 11.236C23.8077 14.1782 20.7608 15.3052 20.6273 15.3531C20.1404 15.5255 19.8846 16.0592 20.0554 16.547C20.1907 16.9331 20.5529 17.1746 20.9402 17.1746C21.0429 17.1746 21.1477 17.1575 21.2502 17.1216C21.4259 17.06 25.5602 15.565 25.9519 11.412C26.0006 10.8965 25.6222 10.4392 25.1067 10.3906Z" fill="#244346"/>
<path d="M24.352 52.1673C24.4822 52.2292 24.6193 52.2584 24.7543 52.2584C25.1047 52.2584 25.4408 52.061 25.6014 51.7235C25.8238 51.256 25.6252 50.6965 25.1577 50.4742C21.5498 48.7575 21.8585 44.6764 21.8738 44.4997C21.9203 43.9854 21.542 43.5299 21.0274 43.4817C20.5129 43.4352 20.0548 43.8122 20.0065 44.3278C19.9857 44.5534 19.5445 49.8798 24.352 52.1673V52.1673Z" fill="#244346"/>
<path d="M22.1306 34.7663C21.6629 34.9887 21.4643 35.5481 21.6867 36.0156C21.8472 36.3532 22.1834 36.5506 22.5338 36.5506C22.6688 36.5506 22.806 36.5213 22.936 36.4595C25.9711 35.0155 25.6935 31.6607 25.6801 31.5187C25.6317 31.0031 25.1732 30.6261 24.6592 30.6726C24.1437 30.721 23.765 31.178 23.8131 31.6935C23.8152 31.7152 23.9955 33.879 22.1306 34.7663Z" fill="#244346"/>
<path d="M44.4172 32.78C44.4172 33.2978 44.837 33.7175 45.3549 33.7175C45.8727 33.7175 46.2925 33.2978 46.2925 32.78C46.2925 32.2623 45.8727 31.8425 45.3549 31.8425C44.837 31.8425 44.4172 32.2623 44.4172 32.78Z" fill="#244346"/>
<path d="M51.7286 33.7175C52.2465 33.7175 52.6663 33.2978 52.6663 32.78C52.6663 32.2623 52.2465 31.8425 51.7286 31.8425C51.2108 31.8425 50.791 32.2623 50.791 32.78C50.791 33.2978 51.2109 33.7175 51.7286 33.7175Z" fill="#244346"/>
<path d="M39.7009 58.5925C39.7009 59.1103 40.1207 59.53 40.6386 59.53C41.1564 59.53 41.5762 59.1103 41.5762 58.5925C41.5762 58.0748 41.1564 57.655 40.6386 57.655C40.1207 57.655 39.7009 58.0748 39.7009 58.5925Z" fill="#244346"/>
<path d="M41.5762 6.96753C41.5762 6.44978 41.1564 6.03003 40.6386 6.03003C40.1207 6.03003 39.7009 6.44978 39.7009 6.96753C39.7009 7.48528 40.1207 7.90503 40.6386 7.90503C41.1564 7.90503 41.5762 7.48528 41.5762 6.96753Z" fill="#244346"/>
</g>
<defs>
<clipPath id="clip0">
<rect width="64" height="64" fill="white"/>
</clipPath>
</defs>
</svg>
