<svg width="64" height="64" viewBox="0 0 64 64" fill="none" xmlns="http://www.w3.org/2000/svg">
<g clip-path="url(#clip0)">
<path d="M47.3584 28.8015C47.4295 28.4495 47.4657 28.0914 47.4665 27.7322C47.2957 25.1121 46.0802 22.6704 44.0927 20.9547C44.2103 20.9677 44.3203 20.9747 44.4414 20.9907C46.3156 21.2419 48.0762 20.0354 48.5183 18.1969C48.9604 16.3584 47.9405 14.4834 46.1571 13.8552C44.7772 13.3399 43.3377 13.0012 41.8728 12.8473C42.0376 12.1316 42.1248 11.4001 42.1332 10.6656C42.1332 7.76873 40.0212 5.14374 36.7999 3.9365V3.199C36.7999 1.43177 35.3671 -0.000976562 33.5999 -0.000976562C31.8326 -0.000976562 30.3999 1.43164 30.3999 3.199V3.38238C30.0463 3.44388 29.7023 3.52088 29.3682 3.61363L28.8119 2.22401C28.2502 0.819144 26.6862 0.100773 25.2546 0.59002C23.8228 1.07927 23.0256 2.60463 23.4412 4.05937L24.2996 7.06448C23.7623 7.77598 23.3011 8.54172 22.9233 9.34934C22.8801 6.94361 22.2267 4.58837 21.0246 2.50401C20.1303 0.959143 18.4827 0.0051484 16.6974 -0.000851563H12.5089C11.6858 -0.000101568 10.9339 0.466396 10.5676 1.20364C10.2014 1.94089 10.2838 2.82176 10.7803 3.47838C11.9449 5.03149 13.3334 7.35336 13.3334 9.59922V23.978C11.3386 26.1142 9.06677 30.1207 9.06677 37.3323C9.06677 46.8541 10.2168 48.6145 11.3418 49.0801C11.5279 49.1577 11.7276 49.1977 11.9293 49.1979C11.9893 49.1949 12.049 49.1881 12.1081 49.1779C12.4653 49.9755 12.8746 50.7487 13.3335 51.4925V59.1988C13.3249 61.2387 14.6117 63.0592 16.5376 63.7317C18.4635 64.4041 20.6038 63.7804 21.8668 62.1785C22.8296 63.4077 24.3351 64.0848 25.8934 63.99C27.4518 63.8952 28.8639 63.0403 29.6705 61.7035C30.2649 61.7983 30.865 61.8524 31.4668 61.8655C34.6216 61.8759 37.7616 62.299 40.8068 63.1239C42.6288 63.6415 44.5071 63.9353 46.4001 63.9989C48.9657 63.9989 54.9334 62.752 54.9334 51.199C54.9331 45.86 52.2768 36.2747 47.3584 28.8015ZM45.3332 27.7324C45.3423 27.9972 45.3224 28.2624 45.2741 28.5229C45.2459 28.5706 45.2217 28.6204 45.2014 28.672C45.1466 28.8749 45.0402 29.06 44.8924 29.2094C44.8811 29.2201 44.8681 29.2302 44.8562 29.2407C44.8021 29.2884 44.7446 29.332 44.6841 29.3711C44.6512 29.3927 44.6191 29.4145 44.5828 29.435C44.4854 29.4901 44.3838 29.5376 44.2791 29.577C44.2457 29.5897 44.2059 29.6002 44.1704 29.6122C44.0492 29.6524 43.9261 29.6861 43.8013 29.7134C43.7616 29.7222 43.7239 29.7317 43.6821 29.7399C43.5046 29.7742 43.3044 29.8023 43.0803 29.8232C43.0377 29.8272 42.9914 29.83 42.9469 29.8335C42.7016 29.8525 42.4375 29.8656 42.1331 29.8656C41.9358 29.8656 41.746 29.8559 41.5641 29.838C41.5503 29.8367 41.5383 29.8337 41.5246 29.8324C41.3572 29.8145 41.1955 29.7911 41.0426 29.7601L41.0067 29.7512C40.8573 29.7197 40.7143 29.6834 40.5806 29.6411C40.5552 29.6331 40.5331 29.6232 40.5083 29.615C40.3947 29.5769 40.2853 29.5364 40.1843 29.4917C40.14 29.472 40.1011 29.4502 40.0593 29.4295C39.9882 29.3942 39.9178 29.3591 39.8543 29.3212C39.7988 29.2879 39.7497 29.253 39.7005 29.218C39.6617 29.1907 39.6221 29.1639 39.5872 29.1357C39.5361 29.094 39.4875 29.0494 39.4415 29.002C39.421 28.9814 39.4001 28.9609 39.3817 28.9401C39.3405 28.8931 39.3032 28.843 39.2701 28.79C39.258 28.7706 39.2458 28.7514 39.2356 28.7321C39.2177 28.6996 39.2021 28.6659 39.189 28.6312C39.1606 28.5492 39.149 28.4624 39.1546 28.3759C39.1567 28.3359 39.162 28.296 39.1703 28.2567C39.1813 28.2087 39.196 28.1616 39.2141 28.1159C39.2363 28.0499 39.2642 27.9859 39.2975 27.9247L39.312 27.902C39.415 27.7266 39.5405 27.5655 39.6851 27.4227L39.6856 27.4221L39.686 27.4216L39.6871 27.42L39.6877 27.4192L39.6881 27.419C39.8563 27.2465 40.0108 27.0612 40.1505 26.865C40.1748 26.8319 40.207 26.8029 40.2302 26.7691C40.2796 26.6987 40.316 26.6225 40.3613 26.5501C40.3658 26.5432 40.3722 26.5385 40.3765 26.5315C40.402 26.4901 40.4213 26.446 40.4457 26.4041C40.5618 26.2077 40.6655 26.0044 40.7562 25.7951C40.7598 25.7871 40.7662 25.7814 40.7696 25.7732C40.7892 25.7264 40.8021 25.6779 40.8206 25.6307C40.8946 25.4415 40.9643 25.2518 41.0198 25.0569C41.0231 25.0466 41.0302 25.0389 41.0332 25.0284L41.0353 25.0221C41.0567 24.9456 41.0682 24.8673 41.0865 24.7901C41.1266 24.6243 41.1671 24.4595 41.196 24.2919H41.1963L41.1962 24.2894C41.2095 24.2123 41.2172 24.135 41.2282 24.0576L41.2338 24.0409V24.0398L41.2343 24.0366C41.2458 23.9533 41.2567 23.87 41.2666 23.7866L41.2683 23.7703L41.2727 23.7341C41.2873 23.5939 41.2963 23.4556 41.3046 23.3163C41.3052 23.3084 41.31 23.3019 41.3103 23.2939C41.3156 23.2126 41.3192 23.1314 41.3223 23.0501L41.3232 23.0093L41.3245 22.9533L41.3267 22.8565C41.3272 22.8211 41.329 22.7858 41.3291 22.7505V22.7418L41.3287 22.7403C41.3287 22.7135 41.3267 22.688 41.3267 22.6614L41.3306 22.6439C41.331 22.632 41.3255 22.6203 41.3252 22.6083L41.324 22.5591C41.3226 22.3899 41.3195 22.2266 41.3113 22.0676C41.3085 22.014 41.3053 21.9618 41.3018 21.9086C41.2957 21.8133 41.2925 21.7113 41.2846 21.6209C43.5816 22.842 45.1047 25.1415 45.3332 27.7324ZM40.4972 14.9334L40.4992 14.9331C40.6877 14.9323 40.8767 14.9321 41.0665 14.9323C42.5665 15.0054 44.0447 15.3207 45.4441 15.8657C45.8697 16.0133 46.2099 16.3388 46.3764 16.7573C46.5448 17.1698 46.5257 17.635 46.3238 18.0323C46.0258 18.627 45.3823 18.9662 44.7233 18.876C42.9889 18.5217 41.1893 18.671 39.5371 19.3063L39.5322 19.308L39.5228 19.3114C39.3965 19.3778 39.285 19.4694 39.1953 19.5804C39.1856 19.5919 39.1702 19.5964 39.1608 19.6083C39.148 19.6247 39.1468 19.6465 39.135 19.6635C39.0646 19.7638 39.0123 19.8754 38.9803 19.9937C38.9738 20.0179 38.9625 20.0392 38.9576 20.0637C38.9317 20.1877 38.9283 20.3153 38.9477 20.4405L39.1331 21.5458C39.1442 21.6435 39.1531 21.7565 39.1623 21.8669C39.1692 21.9526 39.1757 22.0381 39.1806 22.1273C39.1861 22.2214 39.1898 22.3188 39.1927 22.4184C39.1972 22.6116 39.1968 22.8088 39.1883 23.0093C39.1867 23.0473 39.1853 23.0853 39.1833 23.1235C39.1703 23.3681 39.1446 23.612 39.1063 23.854L39.0992 23.8904C39.0608 24.1155 39.0078 24.338 38.9406 24.5563C38.9342 24.5773 38.927 24.5979 38.9201 24.6189C38.9096 24.6508 38.8975 24.682 38.8862 24.7136C38.827 24.8824 38.7557 25.0466 38.673 25.2053C38.6408 25.2664 38.6098 25.328 38.5741 25.3865C38.4652 25.5741 38.3342 25.748 38.1841 25.9045L38.1795 25.9104L38.1627 25.9296C38.0237 26.0701 37.8935 26.2189 37.7727 26.3752L37.7665 26.3824L37.7655 26.3846L37.7585 26.3926C37.7005 26.401 37.6421 26.4091 37.5834 26.4171C37.0365 26.4909 36.4646 26.5507 35.8607 26.5911C35.7807 26.5965 35.6971 26.5994 35.6161 26.6041C34.9707 26.642 34.3025 26.6659 33.5999 26.6659C33.3755 26.6659 33.1369 26.6491 32.8934 26.6244C32.7784 26.6125 32.6578 26.5936 32.5386 26.5766C32.4098 26.5585 32.2813 26.5406 32.1504 26.5174C32.0036 26.491 31.8549 26.46 31.7056 26.4274C31.6019 26.4047 31.4984 26.3817 31.3948 26.3565C31.2253 26.3151 31.0561 26.2705 30.8874 26.2227C30.8191 26.2034 30.7519 26.1832 30.6845 26.163C29.885 25.9354 29.1187 25.6042 28.4048 25.1781C28.2742 25.0428 28.1342 24.9166 27.9859 24.8008C27.983 24.7634 27.9824 24.7258 27.984 24.6883C27.9875 24.6651 28.0005 24.6458 28.0025 24.622C28.0587 24.1904 28.1758 23.769 28.3505 23.3704C28.3607 23.3458 28.3698 23.3223 28.3803 23.2971C28.47 23.0808 28.5783 22.8499 28.6973 22.612C28.7263 22.554 28.7559 22.4955 28.7867 22.4361C28.9163 22.1863 29.0575 21.929 29.2162 21.6631L29.2573 21.5954C29.8584 20.6065 30.5441 19.6715 31.3066 18.8009C31.3328 18.771 31.3596 18.7413 31.3861 18.7114C31.6526 18.4098 31.9295 18.1112 32.22 17.8208L32.2214 17.8194C32.5025 17.5403 32.7983 17.2763 33.1073 17.0285C33.1623 16.9843 33.2171 16.9356 33.2721 16.8932C33.5161 16.7059 33.7694 16.5311 34.031 16.3692C34.1369 16.3031 34.2429 16.2359 34.3489 16.1758C34.5684 16.0506 34.7886 15.9401 35.0092 15.8389C35.1446 15.7771 35.2801 15.7191 35.4159 15.6652C35.6249 15.5826 35.8346 15.5064 36.0457 15.4416C36.1794 15.4002 36.3132 15.3648 36.4471 15.3298C36.6746 15.2712 36.9026 15.2159 37.1336 15.1736C37.2325 15.1551 37.3319 15.1413 37.431 15.1256C37.7021 15.0834 37.9742 15.0451 38.2515 15.0198C38.294 15.0158 38.3369 15.0137 38.3795 15.0099C39.0622 14.9528 39.7645 14.9359 40.4972 14.9334ZM22.9333 21.4281C22.9333 15.1053 24.0614 10.5876 26.2864 8.00223C26.5208 7.73035 26.6024 7.35873 26.5037 7.01373L25.4922 3.47413C25.3888 3.11151 25.5874 2.73151 25.9442 2.60938C26.3009 2.48726 26.6908 2.66588 26.8313 3.01588L27.762 5.34187C27.8672 5.60474 28.0724 5.81499 28.3327 5.92636C28.5929 6.03774 28.8868 6.04111 29.1495 5.93561C29.9221 5.63387 30.7348 5.44674 31.5615 5.38037C32.1116 5.33112 32.5333 4.87024 32.5334 4.31787V3.19913C32.5334 2.61001 33.0109 2.13251 33.6 2.13251C34.1891 2.13251 34.6666 2.61001 34.6666 3.19913V4.70637C34.6667 5.18137 34.9807 5.59912 35.437 5.73137C38.1661 6.51986 40 8.50322 40 10.6657C39.9911 11.3903 39.8892 12.1108 39.6968 12.8094L39.6776 12.8102C38.9588 12.8213 38.2412 12.8704 37.5277 12.9576C37.4799 12.9636 37.4319 12.9686 37.384 12.9751C37.0815 13.0167 36.7771 13.0707 36.4716 13.1346C36.3644 13.1567 36.257 13.1807 36.1499 13.2058C35.8735 13.2714 35.5962 13.3456 35.3181 13.4343C35.1899 13.4749 35.0619 13.5237 34.9337 13.5696C34.7359 13.6409 34.5377 13.7197 34.3394 13.8054C34.1715 13.8776 34.0039 13.9542 33.8363 14.0371C33.6089 14.1493 33.3813 14.2726 33.1536 14.4067C33.0869 14.4461 33.02 14.4739 32.9533 14.5152C33.2559 13.6043 33.7754 12.7989 34.6667 12.7989C35.2559 12.7989 35.7334 12.3213 35.7334 11.7323C35.7334 11.1432 35.2557 10.6657 34.6667 10.6657C31.4984 10.6657 30.5159 14.2246 30.4104 16.6256C30.2793 16.7624 30.1485 16.9017 30.0169 17.0466C29.9281 17.144 29.8412 17.2417 29.7542 17.3405C29.6085 17.5064 29.464 17.6763 29.3204 17.8504C29.2227 17.9683 29.1244 18.0849 29.0297 18.204C28.8369 18.4454 28.6482 18.692 28.4633 18.9438C28.4197 19.0033 28.3779 19.0625 28.3352 19.1222C27.3358 20.4309 26.5655 21.8995 26.0573 23.4658H25.3996C25.3726 23.4559 25.3411 23.4455 25.3139 23.4356C25.1739 23.3849 25.0274 23.3345 24.8841 23.2844C24.6922 23.2171 24.5097 23.1519 24.3069 23.0814C23.8793 22.9339 23.4268 22.7775 22.9563 22.605L22.9336 22.5966V21.4281H22.9333ZM12.5089 2.13251H16.6974C17.7217 2.13751 18.6665 2.68601 19.1786 3.57313C20.2388 5.40449 20.7981 7.48298 20.8 9.59909V20.6387C20.2597 20.8138 19.7776 20.9933 19.3288 21.1865C17.9636 21.0803 16.6026 21.4386 15.4667 22.2034V9.59909C15.4667 6.76573 13.8459 4.01062 12.5089 2.13251ZM13.5381 45.9616L13.5316 45.9775C13.2896 46.5561 13.0197 46.8348 12.5594 46.9041C12.552 46.9051 12.5464 46.9109 12.5391 46.9121C12.4489 46.9251 12.3579 46.9319 12.2668 46.9324C12.219 46.9324 12.1714 46.9355 12.124 46.9418C11.8245 46.3178 11.2 44.1939 11.2 37.3324C11.2 30.4723 13.3647 26.9361 15.1089 25.1974C15.121 25.1865 15.1372 25.1826 15.1489 25.171C16.8551 23.4876 18.5087 23.1513 19.1488 23.3304C19.164 23.3348 19.1798 23.3315 19.1951 23.335C19.2136 23.3416 19.2415 23.3459 19.2561 23.3533C20.6613 24.0331 22.1118 24.615 23.5972 25.0949C23.7792 25.1575 23.9322 25.2125 24.0981 25.2708C24.2587 25.3269 24.4209 25.3838 24.5736 25.439C25.1989 25.6436 25.8003 25.9155 26.3672 26.2499C26.3959 26.2829 26.4144 26.3219 26.4458 26.3532C26.5779 26.4757 26.7177 26.5897 26.8642 26.6945C26.9167 26.7551 26.9642 26.8199 27.0062 26.8881C27.0149 26.9036 27.0228 26.9216 27.0312 26.9382C27.0777 27.033 27.1135 27.1325 27.1382 27.235C27.1448 27.2615 27.1535 27.2835 27.1592 27.312C27.1867 27.4504 27.2003 27.5912 27.1999 27.7324C27.1999 31.424 21.2625 36.2751 18.0723 38.8813C17.0661 39.7032 16.2714 40.3522 15.7791 40.8448C15.6471 40.9769 15.5227 41.1165 15.4067 41.263C15.3961 41.2765 15.3877 41.291 15.3772 41.3045C14.6975 42.291 14.2212 43.4033 13.9765 44.576C13.8575 45.046 13.7111 45.5086 13.5381 45.9616ZM20.8 59.1988C20.7985 60.6709 19.6055 61.8639 18.1333 61.8654C16.6612 61.8639 15.4682 60.6709 15.4667 59.1988V54.3326C17.0087 56.0273 18.8087 57.4681 20.8001 58.6014V59.1988H20.8ZM25.5999 61.8654C24.3234 61.8635 23.2269 60.9582 22.9837 59.705C24.3853 60.3357 25.8385 60.8445 27.3275 61.2258C26.8475 61.6402 26.234 61.8673 25.5999 61.8654ZM37.8949 60.304C35.7744 59.9154 33.6224 59.7241 31.4665 59.7322C30.7404 59.7114 30.0174 59.6281 29.3057 59.4832C29.296 59.4811 29.2888 59.4736 29.279 59.4718C26.8664 58.9989 24.5383 58.1672 22.3723 57.0041C22.0826 56.8482 21.8037 56.6829 21.5256 56.5171C21.4061 56.4456 21.2867 56.3767 21.1675 56.3022C20.9372 56.1588 20.7137 56.0096 20.4917 55.8592C20.3103 55.7362 20.13 55.6092 19.9506 55.4783C19.7543 55.3357 19.5583 55.1931 19.3692 55.0447C19.1455 54.8696 18.9266 54.6825 18.7076 54.495C18.4322 54.2583 18.1653 54.0152 17.9068 53.7656C17.7311 53.5966 17.556 53.4267 17.3848 53.2487C17.1953 53.0506 17.0111 52.8485 16.8322 52.6423C16.7067 52.4992 16.5854 52.3496 16.4634 52.201C16.1209 51.7818 15.7984 51.3484 15.4961 50.9004C14.9827 50.1555 14.5287 49.3714 14.1386 48.5552C14.1597 48.5415 14.176 48.5231 14.1967 48.5089C14.3287 48.4199 14.4532 48.3204 14.5691 48.2112C14.632 48.151 14.6877 48.0855 14.7451 48.0207C14.8267 47.9301 14.9035 47.8352 14.9752 47.7365C15.0231 47.6697 15.071 47.6039 15.1147 47.5342C15.1895 47.4154 15.2575 47.2921 15.3215 47.1661C15.3822 47.0469 15.4381 46.9266 15.4907 46.8035C15.5315 46.7078 15.573 46.6125 15.6096 46.5151C15.6597 46.3821 15.7051 46.2506 15.7484 46.1173L15.7734 46.04C15.8707 45.733 15.9589 45.4285 16.0365 45.1431C16.2079 44.3723 16.4804 43.6275 16.8469 42.928C16.9697 42.7192 17.1177 42.5263 17.2876 42.3535C17.7042 41.9369 18.5001 41.2869 19.422 40.5338C19.6515 40.3463 19.8887 40.1523 20.1303 39.9539C20.5432 41.5372 20.7681 43.1635 20.8001 44.7994C20.6622 46.9115 21.7121 48.9245 23.5229 50.0202C23.6692 50.0936 23.8307 50.1317 23.9943 50.1317C24.4841 50.1295 24.9097 49.7946 25.0271 49.3191C25.1444 48.8436 24.9236 48.3491 24.4912 48.1192C23.6586 47.566 23.1144 46.6718 23.0058 45.678C23.6848 45.8095 24.3752 45.8726 25.0667 45.8661C25.6558 45.8664 26.1335 45.3891 26.1339 44.8C26.1343 44.2109 25.6569 43.7331 25.0678 43.7328C24.3287 43.7453 23.5922 43.6394 22.8866 43.4191C22.8833 43.4088 22.8759 43.4006 22.8724 43.3904C22.7229 41.715 22.4078 40.0588 21.9316 38.4457L22.0114 38.3763C22.2108 38.2047 22.4102 38.0331 22.6104 37.8564C22.7112 37.7676 22.8113 37.6756 22.9121 37.5856C23.0877 37.4286 23.2632 37.2723 23.4378 37.1118C23.5457 37.0126 23.6514 36.9107 23.7587 36.8102C23.9242 36.6552 24.0902 36.5012 24.2534 36.3433C24.3657 36.2348 24.4744 36.1236 24.5853 36.0138C24.7404 35.8602 24.8963 35.7073 25.0479 35.5514C25.1593 35.4369 25.2658 35.3202 25.3749 35.2046L25.4007 35.1773C25.5962 35.8667 25.9547 36.4988 26.446 37.0203C26.9463 37.7371 27.21 38.5922 27.2002 39.4662C27.2002 40.0553 27.6778 40.5328 28.2668 40.5328C28.8559 40.5328 29.3334 40.0553 29.3334 39.4662C29.3334 39.4253 29.3303 39.3214 29.3237 39.1919C29.6594 39.3573 30.026 39.4507 30.4 39.4662C30.991 39.467 31.4718 38.9905 31.476 38.3995C31.4779 38.1177 31.3673 37.8468 31.1688 37.6468C30.9703 37.4468 30.7001 37.3342 30.4183 37.3339C29.4877 36.8922 28.6515 36.2743 27.9562 35.5143L27.9543 35.5121C27.4535 34.7944 27.1899 33.9381 27.2002 33.0631L27.1978 33.0516C27.2892 32.9277 27.3717 32.8025 27.4585 32.6778C27.5663 32.5233 27.6762 32.3692 27.7765 32.2137C27.8624 32.0806 27.9385 31.9467 28.0185 31.813C28.111 31.6586 28.2055 31.5045 28.2897 31.3493C28.3635 31.213 28.4267 31.0761 28.4937 30.9393C28.5689 30.7857 28.6463 30.6326 28.7123 30.4786C28.7718 30.34 28.8194 30.2011 28.8709 30.0622C28.9278 29.9092 28.9867 29.7562 29.0333 29.6029C29.0759 29.4632 29.1058 29.3236 29.1397 29.1839C29.1765 29.031 29.2154 28.8781 29.2413 28.7252C29.265 28.5849 29.2754 28.4449 29.2893 28.3047C29.3007 28.1902 29.324 28.0755 29.3287 27.9611C29.412 27.9911 29.5009 28.014 29.5855 28.0429C29.71 28.0849 29.834 28.123 29.9601 28.1621C30.1935 28.2347 30.4244 28.3036 30.6615 28.3655C30.7579 28.3905 30.852 28.4109 30.9481 28.434C31.2016 28.495 31.4519 28.5529 31.7025 28.5994C31.8143 28.6202 31.9193 28.6329 32.029 28.6506C32.249 28.6859 32.4688 28.7229 32.6805 28.7449C32.9858 28.7792 33.2926 28.7976 33.5998 28.7997C34.1462 28.7997 34.673 28.7851 35.1896 28.7632C35.3446 28.7566 35.495 28.7471 35.6472 28.7386C36.0254 28.7175 36.3942 28.6902 36.754 28.657C36.8409 28.6489 36.9355 28.6461 37.0212 28.6372L37.0224 28.6431C37.0401 28.8332 37.0775 29.021 37.134 29.2034C37.1425 29.2312 37.1515 29.259 37.1609 29.2867C37.1822 29.3504 37.1962 29.415 37.2224 29.4779C37.2572 29.5619 37.3102 29.6377 37.3526 29.7185C37.372 29.7555 37.3814 29.7944 37.4025 29.831C37.4159 29.8541 37.4352 29.8744 37.4492 29.8972C37.5149 30.0025 37.5866 30.104 37.664 30.201C37.7127 30.2632 37.7621 30.3246 37.8157 30.3841C37.8991 30.4762 37.9871 30.5641 38.0794 30.6473C38.1439 30.706 38.2109 30.7622 38.2802 30.8175C38.3768 30.8942 38.4761 30.9681 38.582 31.0381C38.6633 31.0921 38.7485 31.1421 38.835 31.1918C38.9423 31.2536 39.0501 31.3142 39.165 31.3693C39.2646 31.4173 39.3692 31.4595 39.4741 31.5023C39.5877 31.5487 39.6998 31.5957 39.8193 31.6358C39.941 31.6768 40.0686 31.7097 40.1957 31.744C40.3092 31.7745 40.42 31.8082 40.5376 31.8332C40.5973 31.846 40.6586 31.8558 40.7193 31.8672C39.7831 34.6749 39.1835 37.5839 38.9333 40.533C38.9342 40.7812 38.9508 41.0289 38.9831 41.2749C38.8015 41.811 37.9257 43.733 36.8 43.733C36.2109 43.733 35.7334 44.2105 35.7334 44.7996C35.7334 45.3888 36.2109 45.8663 36.8 45.8663C38.0811 45.8021 39.25 45.1158 39.9302 44.0283C40.173 44.4878 40.4331 44.9281 40.6855 45.3485C41.4938 46.4349 41.9941 47.7192 42.1333 49.0662C42.0382 51.2361 41.2878 53.3261 39.9812 55.061C38.8536 56.6037 38.1357 58.4078 37.8949 60.304ZM46.3998 61.8654C44.6756 61.7998 42.9656 61.5259 41.3071 61.0498C40.8852 60.948 40.4487 60.8445 40.0032 60.7418C40.1596 59.0832 40.7808 57.5023 41.7956 56.1811C42.8686 54.6343 43.6399 52.8988 44.0692 51.0659C44.9719 51.7815 45.7541 52.6371 46.3857 53.6005C46.3663 54.3847 46.1081 55.1443 45.6456 55.7781C45.3721 56.0467 45.2637 56.4414 45.3618 56.8119C45.4599 57.1826 45.7493 57.4719 46.1199 57.5701C46.4906 57.6682 46.8852 57.5598 47.1538 57.2863C47.5457 56.8756 47.8493 56.3889 48.0458 55.8563C48.473 56.2498 49.0204 56.4879 49.5995 56.5321C50.1692 56.5319 50.6382 56.0844 50.665 55.5154C50.6919 54.9465 50.267 54.4567 49.7 54.403C49.612 54.3727 49.062 54.1385 48.4204 52.8551C47.3437 51.1235 45.9169 49.6359 44.2317 48.4879C43.9839 46.9644 43.3969 45.516 42.5142 44.2499C41.7057 43.1635 41.2056 41.8792 41.0663 40.5322C41.0787 39.8883 41.1403 39.2462 41.2508 38.6117C42.2442 40.579 44.0187 42.0384 46.1408 42.6332C47.4012 42.9488 48.3564 44.604 48.6168 45.2134C48.8458 45.7561 49.4714 46.0106 50.0142 45.7816C50.5569 45.5526 50.8114 44.927 50.5824 44.3843C50.4459 44.0603 49.1725 41.1927 46.6584 40.5645C43.1111 39.677 42.1215 35.0343 42.1116 34.9874C42.1048 34.9539 42.0832 34.9287 42.0735 34.8966C42.3912 33.7007 42.7106 32.6425 42.9175 31.9812C43.5091 31.9562 44.0957 31.8606 44.6646 31.6962C44.7067 31.6838 44.7488 31.6725 44.7907 31.6591C44.8767 31.6308 44.9613 31.597 45.0464 31.5637C45.4602 31.4137 45.8456 31.195 46.1864 30.9166C50.4885 37.8801 52.7994 46.3915 52.7994 51.1987C52.7998 60.48 48.7899 61.8654 46.3998 61.8654Z" fill="#244346"/>
</g>
<defs>
<clipPath id="clip0">
<rect width="64" height="64" fill="white"/>
</clipPath>
</defs>
</svg>
