<svg width="64" height="64" viewBox="0 0 64 64" fill="none" xmlns="http://www.w3.org/2000/svg">
<path d="M16 23H15V25H17C17.552 25 18 24.553 18 24V22H16V23Z" fill="#244346"/>
<path d="M20 25H22V23H21V22H19V24C19 24.553 19.448 25 20 25Z" fill="#244346"/>
<path d="M17 26H15V28H16V29H18V27C18 26.447 17.552 26 17 26Z" fill="#244346"/>
<path d="M21 28H22V26H20C19.448 26 19 26.447 19 27V29H21V28Z" fill="#244346"/>
<path d="M43 36H42V38H44C44.552 38 45 37.553 45 37V35H43V36Z" fill="#244346"/>
<path d="M48 36V35H46V37C46 37.553 46.448 38 47 38H49V36H48Z" fill="#244346"/>
<path d="M44 39H42V41H43V42H45V40C45 39.447 44.552 39 44 39Z" fill="#244346"/>
<path d="M46 40V42H48V41H49V39H47C46.448 39 46 39.447 46 40Z" fill="#244346"/>
<path d="M29 6V4C26.243 4 24 6.243 24 9H26C26 7.346 27.346 6 29 6Z" fill="#244346"/>
<path d="M26 55H24C24 57.757 26.243 60 29 60V58C27.346 58 26 56.654 26 55Z" fill="#244346"/>
<path d="M40 42.168V21.832C40 19.158 41.065 16.479 43 14.289C44.634 12.438 45.313 9.964 44.863 7.501C44.285 4.337 41.778 1.79 38.623 1.162C36.659 0.771 34.688 1.101 32.999 2.082C31.821 1.398 30.458 1 29 1C24.589 1 21 4.589 21 9C21 10.763 21.576 12.451 22.637 13.84C22.222 14.479 22 15.222 22 16C22 18.147 23.701 19.904 25.826 19.996C25.941 20.621 26 21.235 26 21.832V24.184C24.839 24.598 24 25.698 24 27V37C24 38.302 24.839 39.402 26 39.816V42.168C26 42.765 25.941 43.379 25.826 44.004C23.701 44.096 22 45.853 22 48C22 48.778 22.222 49.521 22.637 50.159C21.576 51.548 21 53.236 21 55C21 59.411 24.589 63 29 63C30.464 63 31.834 62.598 33.016 61.908C34.235 62.614 35.593 63 36.999 63C37.537 63 38.081 62.946 38.624 62.838C41.778 62.21 44.286 59.663 44.864 56.499C45.314 54.036 44.635 51.561 43.001 49.711C41.065 47.521 40 44.842 40 42.168ZM24 16C24 15.452 24.223 14.938 24.628 14.554C24.821 14.37 24.933 14.118 24.939 13.853C24.946 13.587 24.846 13.331 24.663 13.138C23.591 12.014 23 10.544 23 9C23 5.691 25.691 3 29 3C32.309 3 35 5.691 35 9H37C37 6.843 36.138 4.886 34.745 3.446C35.833 3.002 37.034 2.884 38.233 3.123C40.59 3.593 42.464 5.496 42.896 7.86C43.235 9.716 42.727 11.577 41.501 12.964C39.243 15.521 38 18.67 38 21.832V26H29.816C29.514 25.153 28.847 24.486 28 24.184V21.832C28 20.811 27.859 19.751 27.581 18.685C27.511 18.416 27.329 18.192 27.086 18.059C26.875 17.946 26.63 17.913 26.397 17.961C26.269 17.987 26.136 18 26 18C24.897 18 24 17.103 24 16V16ZM38 36H30V33H38V36ZM38 31H30V28H38V31ZM26 27C26 26.448 26.449 26 27 26C27.551 26 28 26.448 28 27V37C28 37.552 27.551 38 27 38C26.449 38 26 37.552 26 37V27ZM42.896 56.14C42.464 58.504 40.59 60.408 38.233 60.877C37.033 61.116 35.833 60.998 34.745 60.554C36.138 59.114 37 57.157 37 55H35C35 58.309 32.309 61 29 61C25.691 61 23 58.309 23 55C23 53.455 23.591 51.985 24.663 50.862C24.847 50.67 24.946 50.413 24.939 50.147C24.933 49.881 24.821 49.629 24.628 49.446C24.223 49.062 24 48.548 24 48C24 46.897 24.897 46 26 46C26.127 46 26.252 46.012 26.373 46.034C26.615 46.095 26.871 46.062 27.091 45.942C27.334 45.81 27.512 45.584 27.582 45.315C27.859 44.249 28 43.189 28 42.168V39.816C28.847 39.514 29.514 38.847 29.816 38H38V42.168C38 45.33 39.243 48.48 41.501 51.035C42.726 52.423 43.235 54.283 42.896 56.14V56.14Z" fill="#244346"/>
</svg>
