<?xml version="1.0" encoding="UTF-8"?>
<svg id="_Слой_2" data-name="Слой 2" xmlns="http://www.w3.org/2000/svg" viewBox="0 0 893.66 199.71">
  <defs>
    <style>
      .cls-1 {
        fill: #e7363f;
      }

      .cls-2 {
        letter-spacing: .01em;
      }

      .cls-3 {
        letter-spacing: -.02em;
      }

      .cls-4 {
        letter-spacing: -.01em;
      }

      .cls-5 {
        fill: #168ccd;
      }

      .cls-6 {
        fill: none;
      }

      .cls-6, .cls-7 {
        isolation: isolate;
      }

      .cls-8 {
        letter-spacing: -.05em;
      }

      .cls-7 {
        fill: #3c6474;
        font-family: Arial-BoldMT, Arial;
        font-size: 40px;
        font-weight: 700;
      }
    </style>
  </defs>
  <g id="_Слой_2-2" data-name=" Слой 2">
    <g id="_Слой_1-2" data-name=" Слой 1-2">
      <g>
        <g>
          <g>
            <rect class="cls-5" y="66.57" width="49.93" height="16.64"/>
            <rect class="cls-5" y="66.57" width="16.64" height="66.57"/>
            <rect class="cls-5" y="116.5" width="99.85" height="16.64"/>
          </g>
          <g>
            <rect class="cls-1" x="66.67" y="149.78" width="16.64" height="49.93"/>
            <rect class="cls-1" x="66.67" y="183.06" width="66.57" height="16.64"/>
            <rect class="cls-1" x="116.59" y="116.5" width="16.64" height="83.21"/>
          </g>
          <g>
            <rect class="cls-5" x="149.78" y="116.5" width="49.93" height="16.64"/>
            <rect class="cls-5" x="183.06" y="66.57" width="16.64" height="66.57"/>
            <rect class="cls-5" x="99.85" y="66.57" width="99.85" height="16.64"/>
          </g>
          <g>
            <rect class="cls-1" x="116.5" width="16.64" height="49.93"/>
            <rect class="cls-1" x="66.57" width="66.57" height="16.64"/>
            <rect class="cls-1" x="66.57" width="16.64" height="83.21"/>
          </g>
        </g>
        <g class="cls-6">
          <text class="cls-7" transform="translate(220.38 87.66)"><tspan x="0" y="0">Луганская </tspan><tspan class="cls-8" x="212.34" y="0">Г</tspan><tspan x="233.03" y="0">ор</tspan><tspan class="cls-4" x="281.89" y="0">од</tspan><tspan x="330.66" y="0">ская</tspan></text>
          <text class="cls-7" transform="translate(220.38 135.66)"><tspan x="0" y="0">Мно</tspan><tspan class="cls-4" x="81.91" y="0">г</tspan><tspan x="98.05" y="0">опрофильная Б</tspan><tspan class="cls-3" x="414.71" y="0">о</tspan><tspan x="438.14" y="0">льни</tspan><tspan class="cls-2" x="536.89" y="0">ц</tspan><tspan x="561.97" y="0">а № 3</tspan></text>
        </g>
      </g>
    </g>
  </g>
</svg>