<?xml version="1.0" encoding="UTF-8"?>
<svg id="_Слой_2" data-name="Слой 2" xmlns="http://www.w3.org/2000/svg" viewBox="0 0 893.66 199.7">
  <defs>
    <style>
      .cls-1 {
        fill: #e7363f;
      }

      .cls-2 {
        letter-spacing: .01em;
      }

      .cls-3 {
        fill: #fff;
        font-family: Arial-BoldMT, Arial;
        font-size: 40px;
        font-weight: 700;
        isolation: isolate;
      }

      .cls-4 {
        letter-spacing: -.02em;
      }

      .cls-5 {
        letter-spacing: -.01em;
      }

      .cls-6 {
        fill: #168ccd;
      }

      .cls-7 {
        letter-spacing: -.05em;
      }
    </style>
  </defs>
  <g id="_Слой_2-2" data-name=" Слой 2">
    <g id="_Слой_1-2" data-name=" Слой 1-2">
      <g>
        <g>
          <g>
            <rect class="cls-6" y="66.6" width="49.9" height="16.6"/>
            <rect class="cls-6" y="66.6" width="16.6" height="66.6"/>
            <rect class="cls-6" y="116.5" width="99.8" height="16.6"/>
          </g>
          <g>
            <rect class="cls-1" x="66.7" y="149.8" width="16.6" height="49.9"/>
            <rect class="cls-1" x="66.7" y="183.1" width="66.6" height="16.6"/>
            <rect class="cls-1" x="116.6" y="116.5" width="16.6" height="83.2"/>
          </g>
          <g>
            <rect class="cls-6" x="149.8" y="116.5" width="49.9" height="16.6"/>
            <rect class="cls-6" x="183.1" y="66.6" width="16.6" height="66.6"/>
            <rect class="cls-6" x="99.8" y="66.6" width="99.8" height="16.6"/>
          </g>
          <g>
            <rect class="cls-1" x="116.5" width="16.6" height="49.9"/>
            <rect class="cls-1" x="66.6" width="66.6" height="16.6"/>
            <rect class="cls-1" x="66.6" width="16.6" height="83.2"/>
          </g>
        </g>
        <text class="cls-3" transform="translate(220.38 87.66)"><tspan x="0" y="0">Луганская </tspan><tspan class="cls-7" x="212.34" y="0">Г</tspan><tspan x="233.03" y="0">ор</tspan><tspan class="cls-5" x="281.89" y="0">од</tspan><tspan x="330.66" y="0">ская</tspan></text>
        <text class="cls-3" transform="translate(220.38 135.66)"><tspan x="0" y="0">Мно</tspan><tspan class="cls-5" x="81.91" y="0">г</tspan><tspan x="98.05" y="0">опрофильная Б</tspan><tspan class="cls-4" x="414.71" y="0">о</tspan><tspan x="438.14" y="0">льни</tspan><tspan class="cls-2" x="536.89" y="0">ц</tspan><tspan x="561.97" y="0">а № 3</tspan></text>
      </g>
    </g>
  </g>
</svg>